# Blender 4.3.0
# www.blender.org
mtllib track_inner_col.mtl
o Plane
v -1.560251 0.000000 1.331289
v -0.604790 0.000000 1.337833
v -2.070068 0.000000 1.159313
v -2.145664 0.000000 1.025165
v -0.354790 0.000000 1.337833
v -0.104790 0.000000 1.337833
v 0.145211 0.000000 1.337833
v 0.395211 0.000000 1.337833
v -2.200684 0.000000 0.365816
v 0.645211 0.000000 1.337833
v 1.144743 -0.000000 1.337697
v -2.197172 -0.000000 -0.378002
v -2.186801 -0.000000 -0.615008
v 1.634421 0.000000 1.330555
v -2.159140 0.000000 -0.829574
v -2.103235 -0.000000 -0.989854
v 2.054672 0.000000 1.272462
v -2.004756 0.000000 -1.095037
v -1.820657 0.000000 -1.197737
v 2.171607 0.000000 1.204077
v 2.239329 0.000000 1.085662
v -1.563699 -0.000000 -1.354341
v 2.278456 0.000000 0.892524
v -1.242066 0.000000 -1.933665
v 2.294392 0.000000 0.663662
v 2.298744 0.000000 0.421021
v -1.198090 -0.000000 -2.464744
v 2.299262 0.000000 -0.077018
v 2.298049 -0.000000 -0.324101
v 2.268896 0.000000 -0.784382
v 2.220292 0.000000 -0.957322
v -0.783854 -0.000000 -3.137745
v 2.141989 0.000000 -1.055071
v -0.105481 -0.000000 -3.136073
v 1.555392 -0.000000 -1.161665
v 1.297350 0.000000 -1.175685
v 0.075761 0.000000 -3.091053
v 1.015223 0.000000 -1.214566
v 0.281969 -0.000000 -2.686105
v 0.703689 0.000000 -1.337085
v 0.449764 -0.000000 -1.607740
v 0.310335 0.000000 -2.195182
v 0.343794 0.000000 -1.916914
v 0.297335 -0.000000 -2.450687
v 0.246584 -0.000000 -2.886843
v 0.182270 -0.000000 -3.017457
v 1.793527 0.000000 -1.147490
v -0.328067 -0.000000 -3.154562
v 2.000428 -0.000000 -1.115516
v -0.560124 0.000000 -3.155025
v -0.968721 0.000000 -3.094446
v -1.079227 -0.000000 -3.022695
v -1.145046 0.000000 -2.896518
v 2.290979 0.000000 -0.563443
v -1.182029 -0.000000 -2.698774
v -1.210717 0.000000 -2.210333
v 2.299299 0.000000 0.172689
v -1.340279 -0.000000 -1.627451
v 1.863040 0.000000 1.313097
v 1.392299 0.000000 1.336377
v -2.200178 -0.000000 -0.132609
v -2.200683 0.000000 0.116195
v 0.895195 0.000000 1.337833
v -2.198916 0.000000 0.609895
v -2.185887 0.000000 0.836017
v -1.949306 0.000000 1.251559
v -0.854789 0.000000 1.337833
v -1.769860 -0.000000 1.306272
v -1.354789 0.000000 1.337833
v -1.104789 0.000000 1.337833
v -0.854789 0.051850 1.337833
v -0.604790 0.051850 1.337833
v -0.354790 0.051850 1.337833
v -0.104790 0.051850 1.337833
v 0.145211 0.051850 1.337833
v 0.395211 0.051850 1.337833
v 0.645211 0.051850 1.337833
v 0.895195 0.051850 1.337833
v 1.144743 0.051850 1.337697
v 1.392299 0.051850 1.336377
v 1.634421 0.051850 1.330555
v 1.863040 0.051850 1.313097
v 2.054672 0.051850 1.272462
v 2.171607 0.051850 1.204077
v 2.239329 0.051850 1.085662
v 2.278456 0.051850 0.892524
v 2.294392 0.051850 0.663662
v 2.298744 0.051850 0.421021
v 2.299299 0.051850 0.172689
v 2.299262 0.051850 -0.077018
v 2.298049 0.051850 -0.324101
v 2.290979 0.051850 -0.563443
v 2.268896 0.051850 -0.784382
v 2.220292 0.051850 -0.957322
v 2.141989 0.051850 -1.055071
v 2.000428 0.051850 -1.115516
v 1.793527 0.051850 -1.147490
v 1.555392 0.051850 -1.161665
v 1.297350 0.051850 -1.175685
v 1.015223 0.051850 -1.214566
v 0.703689 0.051850 -1.337085
v 0.449764 0.051850 -1.607740
v 0.343794 0.051850 -1.916914
v 0.310335 0.051850 -2.195182
v 0.297335 0.051850 -2.450687
v 0.281969 0.051850 -2.686105
v 0.246584 0.051850 -2.886843
v 0.182270 0.051850 -3.017457
v 0.075761 0.051850 -3.091053
v -0.105481 0.051850 -3.136073
v -0.328067 0.051850 -3.154562
v -0.560124 0.051850 -3.155025
v -0.783854 0.051850 -3.137745
v -0.968721 0.051850 -3.094446
v -1.079227 0.051850 -3.022695
v -1.145046 0.051850 -2.896518
v -1.182029 0.051850 -2.698774
v -1.198090 0.051850 -2.464744
v -1.210717 0.051850 -2.210333
v -1.242066 0.051850 -1.933665
v -1.340279 0.051850 -1.627451
v -1.563699 0.051850 -1.354341
v -1.820657 0.051850 -1.197737
v -2.004756 0.051850 -1.095037
v -2.103235 0.051850 -0.989854
v -2.159140 0.051850 -0.829574
v -2.186801 0.051850 -0.615008
v -2.197172 0.051850 -0.378002
v -2.200178 0.051850 -0.132609
v -2.200683 0.051850 0.116195
v -2.200684 0.051850 0.365816
v -2.198916 0.051850 0.609895
v -2.185887 0.051850 0.836017
v -2.145664 0.051850 1.025165
v -2.070068 0.051850 1.159313
v -1.949306 0.051850 1.251559
v -1.769860 0.051850 1.306272
v -1.560251 0.051850 1.331289
v -1.104789 0.051850 1.337833
v -1.354789 0.051850 1.337833
vn 1.0000 -0.0000 -0.0001
vn -0.5446 -0.0000 -0.8387
vn 1.0000 -0.0000 -0.0049
vn 0.0053 -0.0000 1.0000
vn -0.8866 -0.0000 -0.4625
vn 0.9950 -0.0000 -0.0995
vn 0.8681 -0.0000 0.4965
vn -0.9830 -0.0000 -0.1838
vn 0.9627 -0.0000 -0.2706
vn -0.9977 -0.0000 -0.0685
vn 0.7805 -0.0000 -0.6252
vn 1.0000 -0.0000 0.0022
vn 0.9996 -0.0000 -0.0295
vn 0.3927 -0.0000 -0.9197
vn -0.9936 -0.0000 -0.1126
vn 0.1527 -0.0000 -0.9883
vn 0.0594 -0.0000 -0.9982
vn 0.1365 -0.0000 -0.9906
vn -0.7740 -0.0000 -0.6332
vn 0.9848 -0.0000 -0.1736
vn -0.0000 -0.0000 1.0000
vn -0.5204 -0.0000 -0.8539
vn 0.0543 -0.0000 -0.9985
vn -0.7300 -0.0000 -0.6835
vn 0.3660 -0.0000 -0.9306
vn -0.2280 -0.0000 -0.9737
vn -0.9442 -0.0000 -0.3293
vn 0.7293 -0.0000 -0.6842
vn -0.9988 -0.0000 -0.0496
vn -0.9522 -0.0000 -0.3054
vn -0.9918 -0.0000 -0.1279
vn 0.9460 -0.0000 -0.3242
vn -0.4872 -0.0000 -0.8733
vn -0.9990 -0.0000 -0.0437
vn 0.9928 -0.0000 -0.1194
vn -1.0000 -0.0000 -0.0020
vn -0.9999 -0.0000 -0.0122
vn 0.9987 -0.0000 -0.0508
vn -0.9983 -0.0000 0.0575
vn 0.0005 -0.0000 1.0000
vn -0.1185 -0.0000 0.9930
vn -1.0000 -0.0000 -0.0000
vn 0.0240 -0.0000 0.9997
vn 0.9979 -0.0000 -0.0651
vn -1.0000 -0.0000 0.0072
vn -0.0318 -0.0000 0.9995
vn 0.0761 -0.0000 0.9971
vn 0.8971 -0.0000 -0.4418
vn -0.9781 -0.0000 0.2080
vn 0.5685 -0.0000 -0.8227
vn 0.2074 -0.0000 0.9782
vn 0.5048 -0.0000 0.8632
vn -0.8712 -0.0000 0.4909
vn 0.2411 -0.0000 -0.9705
vn -0.6070 -0.0000 0.7947
vn 0.0828 -0.0000 -0.9966
vn 0.9801 -0.0000 0.1986
vn 0.0020 -0.0000 -1.0000
vn 0.9976 -0.0000 0.0695
vn -0.2916 -0.0000 0.9565
vn 0.9998 -0.0000 0.0179
vn -0.0770 -0.0000 -0.9970
vt 1.000000 0.000000
vt 0.000000 0.000000
s 0
f 57/1/1 28/2/1 90/2/1 89/1/1
f 51/1/2 52/2/2 115/2/2 114/1/2
f 28/1/3 29/2/3 91/2/3 90/1/3
f 11/1/4 60/2/4 80/2/4 79/1/4
f 52/1/5 53/2/5 116/2/5 115/1/5
f 54/1/6 30/2/6 93/2/6 92/1/6
f 20/1/7 21/2/7 85/2/7 84/1/7
f 53/1/8 55/2/8 117/2/8 116/1/8
f 30/1/9 31/2/9 94/2/9 93/1/9
f 55/1/10 27/2/10 118/2/10 117/1/10
f 31/1/11 33/2/11 95/2/11 94/1/11
f 26/1/12 57/2/12 89/2/12 88/1/12
f 29/1/13 54/2/13 92/2/13 91/1/13
f 33/1/14 49/2/14 96/2/14 95/1/14
f 56/1/15 24/2/15 120/2/15 119/1/15
f 49/1/16 47/2/16 97/2/16 96/1/16
f 47/1/17 35/2/17 98/2/17 97/1/17
f 36/1/18 38/2/18 100/2/18 99/1/18
f 58/1/19 22/2/19 122/2/19 121/1/19
f 39/1/20 45/2/20 107/2/20 106/1/20
f 70/1/21 67/2/21 71/2/21 139/1/21
f 22/1/22 19/2/22 123/2/22 122/1/22
f 35/1/23 36/2/23 99/2/23 98/1/23
f 67/1/21 2/2/21 72/2/21 71/1/21
f 18/1/24 16/2/24 125/2/24 124/1/24
f 38/1/25 40/2/25 101/2/25 100/1/25
f 32/1/26 51/2/26 114/2/26 113/1/26
f 2/1/21 5/2/21 73/2/21 72/1/21
f 16/1/27 15/2/27 126/2/27 125/1/27
f 40/1/28 41/2/28 102/2/28 101/1/28
f 27/1/29 56/2/29 119/2/29 118/1/29
f 6/1/21 7/2/21 75/2/21 74/1/21
f 24/1/30 58/2/30 121/2/30 120/1/30
f 15/1/31 13/2/31 127/2/31 126/1/31
f 41/1/32 43/2/32 103/2/32 102/1/32
f 19/1/33 18/2/33 124/2/33 123/1/33
f 7/1/21 8/2/21 76/2/21 75/1/21
f 8/1/21 10/2/21 77/2/21 76/1/21
f 13/1/34 12/2/34 128/2/34 127/1/34
f 43/1/35 42/2/35 104/2/35 103/1/35
f 61/1/36 62/2/36 130/2/36 129/1/36
f 10/1/21 63/2/21 78/2/21 77/1/21
f 12/1/37 61/2/37 129/2/37 128/1/37
f 42/1/38 44/2/38 105/2/38 104/1/38
f 64/1/39 65/2/39 133/2/39 132/1/39
f 63/1/40 11/2/40 79/2/40 78/1/40
f 68/1/41 1/2/41 138/2/41 137/1/41
f 62/1/42 9/2/42 131/2/42 130/1/42
f 60/1/43 14/2/43 81/2/43 80/1/43
f 44/1/44 39/2/44 106/2/44 105/1/44
f 9/1/45 64/2/45 132/2/45 131/1/45
f 1/2/46 69/1/46 140/1/46 138/2/46
f 14/1/47 59/2/47 82/2/47 81/1/47
f 45/1/48 46/2/48 108/2/48 107/1/48
f 65/1/49 4/2/49 134/2/49 133/1/49
f 46/1/50 37/2/50 109/2/50 108/1/50
f 59/1/51 17/2/51 83/2/51 82/1/51
f 17/1/52 20/2/52 84/2/52 83/1/52
f 4/1/53 3/2/53 135/2/53 134/1/53
f 37/1/54 34/2/54 110/2/54 109/1/54
f 3/1/55 66/2/55 136/2/55 135/1/55
f 34/1/56 48/2/56 111/2/56 110/1/56
f 21/1/57 23/2/57 86/2/57 85/1/57
f 48/1/58 50/2/58 112/2/58 111/1/58
f 23/1/59 25/2/59 87/2/59 86/1/59
f 66/1/60 68/2/60 137/2/60 136/1/60
f 25/1/61 26/2/61 88/2/61 87/1/61
f 69/1/21 70/2/21 139/2/21 140/1/21
f 5/1/21 6/2/21 74/2/21 73/1/21
f 50/1/62 32/2/62 113/2/62 112/1/62
