# Blender 4.3.0
# www.blender.org
mtllib track_inner_tri.mtl
o Plane
v -1.560251 0.000000 1.331289
v -0.604790 0.000000 1.337833
v -2.070068 0.000000 1.159313
v -2.145664 0.000000 1.025165
v -0.354790 0.000000 1.337833
v -0.104790 0.000000 1.337833
v 0.145211 0.000000 1.337833
v 0.395211 0.000000 1.337833
v -2.200684 0.000000 0.365816
v 0.645211 0.000000 1.337833
v 1.144743 -0.000000 1.337697
v -2.197172 -0.000000 -0.378002
v -2.186801 -0.000000 -0.615008
v 1.634421 0.000000 1.330555
v -2.159140 0.000000 -0.829574
v -2.103235 -0.000000 -0.989854
v 2.054672 0.000000 1.272462
v -2.004756 0.000000 -1.095037
v -1.820657 0.000000 -1.197737
v 2.171607 0.000000 1.204077
v 2.239329 0.000000 1.085662
v -1.563699 -0.000000 -1.354341
v 2.278456 0.000000 0.892524
v -1.242066 0.000000 -1.933665
v 2.294392 0.000000 0.663662
v 2.298744 0.000000 0.421021
v -1.198090 -0.000000 -2.464744
v 2.299262 0.000000 -0.077018
v 2.298049 -0.000000 -0.324101
v 2.268896 0.000000 -0.784382
v 2.220292 0.000000 -0.957322
v -0.783854 -0.000000 -3.137745
v 2.141989 0.000000 -1.055071
v -0.105481 -0.000000 -3.136073
v 1.555392 -0.000000 -1.161665
v 1.297350 0.000000 -1.175685
v 0.075761 0.000000 -3.091053
v 1.015223 0.000000 -1.214566
v 0.281969 -0.000000 -2.686105
v 0.703689 0.000000 -1.337085
v 0.449764 -0.000000 -1.607740
v 0.310335 0.000000 -2.195182
v 0.343794 0.000000 -1.916914
v 0.297335 -0.000000 -2.450687
v 0.246584 -0.000000 -2.886843
v 0.182270 -0.000000 -3.017457
v 1.793527 0.000000 -1.147490
v -0.328067 -0.000000 -3.154562
v 2.000428 -0.000000 -1.115516
v -0.560124 0.000000 -3.155025
v -0.968721 0.000000 -3.094446
v -1.079227 -0.000000 -3.022695
v -1.145046 0.000000 -2.896518
v 2.290979 0.000000 -0.563443
v -1.182029 -0.000000 -2.698774
v -1.210717 0.000000 -2.210333
v 2.299299 0.000000 0.172689
v -1.340279 -0.000000 -1.627451
v 1.863040 0.000000 1.313097
v 1.392299 0.000000 1.336377
v -2.200178 -0.000000 -0.132609
v -2.200683 0.000000 0.116195
v 0.895195 0.000000 1.337833
v -2.198916 0.000000 0.609895
v -2.185887 0.000000 0.836017
v -1.949306 0.000000 1.251559
v -0.854789 0.000000 1.337833
v -1.769860 -0.000000 1.306272
v -1.354789 0.000000 1.337833
v -1.104789 0.000000 1.337833
v -0.854789 0.051850 1.337833
v -0.604790 0.051850 1.337833
v -0.354790 0.051850 1.337833
v -0.104790 0.051850 1.337833
v 0.145211 0.051850 1.337833
v 0.395211 0.051850 1.337833
v 0.645211 0.051850 1.337833
v 0.895195 0.051850 1.337833
v 1.144743 0.051850 1.337697
v 1.392299 0.051850 1.336377
v 1.634421 0.051850 1.330555
v 1.863040 0.051850 1.313097
v 2.054672 0.051850 1.272462
v 2.171607 0.051850 1.204077
v 2.239329 0.051850 1.085662
v 2.278456 0.051850 0.892524
v 2.294392 0.051850 0.663662
v 2.298744 0.051850 0.421021
v 2.299299 0.051850 0.172689
v 2.299262 0.051850 -0.077018
v 2.298049 0.051850 -0.324101
v 2.290979 0.051850 -0.563443
v 2.268896 0.051850 -0.784382
v 2.220292 0.051850 -0.957322
v 2.141989 0.051850 -1.055071
v 2.000428 0.051850 -1.115516
v 1.793527 0.051850 -1.147490
v 1.555392 0.051850 -1.161665
v 1.297350 0.051850 -1.175685
v 1.015223 0.051850 -1.214566
v 0.703689 0.051850 -1.337085
v 0.449764 0.051850 -1.607740
v 0.343794 0.051850 -1.916914
v 0.310335 0.051850 -2.195182
v 0.297335 0.051850 -2.450687
v 0.281969 0.051850 -2.686105
v 0.246584 0.051850 -2.886843
v 0.182270 0.051850 -3.017457
v 0.075761 0.051850 -3.091053
v -0.105481 0.051850 -3.136073
v -0.328067 0.051850 -3.154562
v -0.560124 0.051850 -3.155025
v -0.783854 0.051850 -3.137745
v -0.968721 0.051850 -3.094446
v -1.079227 0.051850 -3.022695
v -1.145046 0.051850 -2.896518
v -1.182029 0.051850 -2.698774
v -1.198090 0.051850 -2.464744
v -1.210717 0.051850 -2.210333
v -1.242066 0.051850 -1.933665
v -1.340279 0.051850 -1.627451
v -1.563699 0.051850 -1.354341
v -1.820657 0.051850 -1.197737
v -2.004756 0.051850 -1.095037
v -2.103235 0.051850 -0.989854
v -2.159140 0.051850 -0.829574
v -2.186801 0.051850 -0.615008
v -2.197172 0.051850 -0.378002
v -2.200178 0.051850 -0.132609
v -2.200683 0.051850 0.116195
v -2.200684 0.051850 0.365816
v -2.198916 0.051850 0.609895
v -2.185887 0.051850 0.836017
v -2.145664 0.051850 1.025165
v -2.070068 0.051850 1.159313
v -1.949306 0.051850 1.251559
v -1.769860 0.051850 1.306272
v -1.560251 0.051850 1.331289
v -1.104789 0.051850 1.337833
v -1.354789 0.051850 1.337833
vn -0.0754 -0.0000 0.9972
vn -0.0000 -0.0000 1.0000
vn -0.7717 -0.0000 0.6360
vn -0.9410 -0.0000 0.3384
vn -1.0000 -0.0000 0.0036
vn 0.0029 -0.0000 1.0000
vn -0.9996 -0.0000 -0.0280
vn -0.9963 -0.0000 -0.0854
vn 0.0501 -0.0000 0.9987
vn -0.9746 -0.0000 -0.2239
vn -0.8713 -0.0000 -0.4907
vn 0.3675 -0.0000 0.9300
vn -0.6255 -0.0000 -0.7802
vn -0.5040 -0.0000 -0.8637
vn 0.7388 -0.0000 0.6739
vn 0.9421 -0.0000 0.3353
vn -0.6683 -0.0000 -0.7439
vn 0.9912 -0.0000 0.1327
vn -0.9788 -0.0000 -0.2050
vn 0.9990 -0.0000 0.0436
vn 0.9999 -0.0000 0.0101
vn -0.9983 -0.0000 -0.0590
vn 1.0000 -0.0000 -0.0025
vn 0.9999 -0.0000 -0.0172
vn 0.9833 -0.0000 -0.1821
vn 0.9024 -0.0000 -0.4309
vn -0.1536 -0.0000 -0.9881
vn 0.6287 -0.0000 -0.7776
vn 0.1632 -0.0000 -0.9866
vn 0.0568 -0.0000 -0.9984
vn 0.0956 -0.0000 -0.9954
vn 0.4211 -0.0000 -0.9070
vn 0.2557 -0.0000 -0.9668
vn 0.9929 -0.0000 -0.1185
vn 0.5799 -0.0000 -0.8147
vn 0.8729 -0.0000 -0.4879
vn 0.9964 -0.0000 -0.0849
vn 0.9762 -0.0000 -0.2171
vn 0.9983 -0.0000 -0.0580
vn 0.9545 -0.0000 -0.2981
vn 0.7837 -0.0000 -0.6211
vn 0.1064 -0.0000 -0.9943
vn 0.0425 -0.0000 -0.9991
vn 0.2780 -0.0000 -0.9606
vn -0.0376 -0.0000 -0.9993
vn -0.4006 -0.0000 -0.9162
vn -0.7673 -0.0000 -0.6413
vn -0.9499 -0.0000 -0.3127
vn 0.9979 -0.0000 -0.0643
vn -0.9921 -0.0000 -0.1252
vn -0.9967 -0.0000 -0.0809
vn 1.0000 -0.0000 0.0010
vn -0.8905 -0.0000 -0.4550
vn 0.1426 -0.0000 0.9898
vn 0.0147 -0.0000 0.9999
vn -1.0000 -0.0000 -0.0071
vn -1.0000 -0.0000 -0.0010
vn 0.0003 -0.0000 1.0000
vn -0.9995 -0.0000 0.0323
vn -0.9914 -0.0000 0.1310
vn -0.4668 -0.0000 0.8843
vn -0.2071 -0.0000 0.9783
vn -0.0159 -0.0000 0.9999
vt 0.000000 0.000000
vt 1.000000 0.000000
s 1
f 28/1/23 89/2/52 57/2/52
f 52/1/47 114/2/46 51/2/46
f 29/1/24 90/2/23 28/2/23
f 60/1/55 79/2/6 11/2/6
f 53/1/48 115/2/47 52/2/47
f 30/1/25 92/2/49 54/2/49
f 21/1/16 84/2/15 20/2/15
f 55/1/50 116/2/48 53/2/48
f 31/1/26 93/2/25 30/2/25
f 27/1/22 117/2/50 55/2/50
f 33/1/28 94/2/26 31/2/26
f 57/1/52 88/2/21 26/2/21
f 54/1/49 91/2/24 29/2/24
f 49/1/44 95/2/28 33/2/28
f 24/1/19 119/2/51 56/2/51
f 47/1/42 96/2/44 49/2/44
f 35/1/30 97/2/42 47/2/42
f 38/1/33 99/2/31 36/2/31
f 22/1/17 121/2/53 58/2/53
f 45/1/40 106/2/34 39/2/34
f 67/1/2 139/2/2 70/2/2
f 19/1/14 122/2/17 22/2/17
f 36/1/31 98/2/30 35/2/30
f 2/1/2 71/2/2 67/2/2
f 16/1/11 124/2/13 18/2/13
f 40/1/35 100/2/33 38/2/33
f 51/1/46 113/2/27 32/2/27
f 5/1/2 72/2/2 2/2/2
f 15/1/10 125/2/11 16/2/11
f 41/1/36 101/2/35 40/2/35
f 56/1/51 118/2/22 27/2/22
f 7/1/2 74/2/2 6/2/2
f 58/1/53 120/2/19 24/2/19
f 13/1/8 126/2/10 15/2/10
f 43/1/38 102/2/36 41/2/36
f 18/1/13 123/2/14 19/2/14
f 8/1/2 75/2/2 7/2/2
f 10/1/2 76/2/2 8/2/2
f 12/1/7 127/2/8 13/2/8
f 42/1/37 103/2/38 43/2/38
f 62/1/57 129/2/56 61/2/56
f 63/1/58 77/2/2 10/2/2
f 61/1/56 128/2/7 12/2/7
f 44/1/39 104/2/37 42/2/37
f 65/1/60 132/2/59 64/2/59
f 11/1/6 78/2/58 63/2/58
f 1/1/1 137/2/62 68/2/62
f 9/1/5 130/2/57 62/2/57
f 14/1/9 80/2/55 60/2/55
f 39/1/34 105/2/39 44/2/39
f 64/1/59 131/2/5 9/2/5
f 69/2/63 138/1/1 1/1/1
f 59/1/54 81/2/9 14/2/9
f 46/1/41 107/2/40 45/2/40
f 4/1/4 133/2/60 65/2/60
f 37/1/32 108/2/41 46/2/41
f 17/1/12 82/2/54 59/2/54
f 20/1/15 83/2/12 17/2/12
f 3/1/3 134/2/4 4/2/4
f 34/1/29 109/2/32 37/2/32
f 66/1/61 135/2/3 3/2/3
f 48/1/43 110/2/29 34/2/29
f 23/1/18 85/2/16 21/2/16
f 50/1/45 111/2/43 48/2/43
f 25/1/20 86/2/18 23/2/18
f 68/1/62 136/2/61 66/2/61
f 26/1/21 87/2/20 25/2/20
f 70/1/2 140/2/63 69/2/63
f 6/1/2 73/2/2 5/2/2
f 32/1/27 112/2/45 50/2/45
f 28/1/23 90/1/23 89/2/52
f 52/1/47 115/1/47 114/2/46
f 29/1/24 91/1/24 90/2/23
f 60/1/55 80/1/55 79/2/6
f 53/1/48 116/1/48 115/2/47
f 30/1/25 93/1/25 92/2/49
f 21/1/16 85/1/16 84/2/15
f 55/1/50 117/1/50 116/2/48
f 31/1/26 94/1/26 93/2/25
f 27/1/22 118/1/22 117/2/50
f 33/1/28 95/1/28 94/2/26
f 57/1/52 89/1/52 88/2/21
f 54/1/49 92/1/49 91/2/24
f 49/1/44 96/1/44 95/2/28
f 24/1/19 120/1/19 119/2/51
f 47/1/42 97/1/42 96/2/44
f 35/1/30 98/1/30 97/2/42
f 38/1/33 100/1/33 99/2/31
f 22/1/17 122/1/17 121/2/53
f 45/1/40 107/1/40 106/2/34
f 67/1/2 71/1/2 139/2/2
f 19/1/14 123/1/14 122/2/17
f 36/1/31 99/1/31 98/2/30
f 2/1/2 72/1/2 71/2/2
f 16/1/11 125/1/11 124/2/13
f 40/1/35 101/1/35 100/2/33
f 51/1/46 114/1/46 113/2/27
f 5/1/2 73/1/2 72/2/2
f 15/1/10 126/1/10 125/2/11
f 41/1/36 102/1/36 101/2/35
f 56/1/51 119/1/51 118/2/22
f 7/1/2 75/1/2 74/2/2
f 58/1/53 121/1/53 120/2/19
f 13/1/8 127/1/8 126/2/10
f 43/1/38 103/1/38 102/2/36
f 18/1/13 124/1/13 123/2/14
f 8/1/2 76/1/2 75/2/2
f 10/1/2 77/1/2 76/2/2
f 12/1/7 128/1/7 127/2/8
f 42/1/37 104/1/37 103/2/38
f 62/1/57 130/1/57 129/2/56
f 63/1/58 78/1/58 77/2/2
f 61/1/56 129/1/56 128/2/7
f 44/1/39 105/1/39 104/2/37
f 65/1/60 133/1/60 132/2/59
f 11/1/6 79/1/6 78/2/58
f 1/1/1 138/1/1 137/2/62
f 9/1/5 131/1/5 130/2/57
f 14/1/9 81/1/9 80/2/55
f 39/1/34 106/1/34 105/2/39
f 64/1/59 132/1/59 131/2/5
f 69/2/63 140/2/63 138/1/1
f 59/1/54 82/1/54 81/2/9
f 46/1/41 108/1/41 107/2/40
f 4/1/4 134/1/4 133/2/60
f 37/1/32 109/1/32 108/2/41
f 17/1/12 83/1/12 82/2/54
f 20/1/15 84/1/15 83/2/12
f 3/1/3 135/1/3 134/2/4
f 34/1/29 110/1/29 109/2/32
f 66/1/61 136/1/61 135/2/3
f 48/1/43 111/1/43 110/2/29
f 23/1/18 86/1/18 85/2/16
f 50/1/45 112/1/45 111/2/43
f 25/1/20 87/1/20 86/2/18
f 68/1/62 137/1/62 136/2/61
f 26/1/21 88/1/21 87/2/20
f 70/1/2 139/1/2 140/2/63
f 6/1/2 74/1/2 73/2/2
f 32/1/27 113/1/27 112/2/45
