# Blender 4.3.0
# www.blender.org
mtllib track_outer_col.mtl
o Plane.001
v -1.876271 0.000000 1.794817
v -1.590753 0.000000 1.830358
v -1.354789 0.000000 1.837833
v -1.590753 0.051850 1.830358
v -1.876271 0.051850 1.794817
v -1.354789 0.051850 1.837833
v -1.104789 0.051850 1.837833
v -0.854789 0.051850 1.837833
v -1.104789 0.000000 1.837833
v -0.854789 0.000000 1.837833
v -0.604790 0.000000 1.837833
v -0.354790 0.000000 1.837833
v -0.604790 0.051850 1.837833
v -0.354790 0.051850 1.837833
v -0.104790 0.051850 1.837833
v 0.145210 0.051850 1.837833
v -0.104790 0.000000 1.837833
v 0.145210 0.000000 1.837833
v 0.395211 0.000000 1.837833
v 0.395211 0.051850 1.837833
v 0.645210 0.051850 1.837833
v 0.895224 0.051850 1.837833
v 1.145677 0.051850 1.837696
v 0.895224 0.000000 1.837833
v 1.145677 0.000000 1.837696
v 1.398111 0.000000 1.836343
v 1.398111 0.051850 1.836343
v 1.655821 0.051850 1.830097
v 1.925571 0.051850 1.809171
v 2.221492 0.051850 1.743812
v 1.925571 0.000000 1.809171
v 2.221492 0.000000 1.743812
v 2.527777 0.000000 1.554993
v 2.527777 0.051850 1.554993
v 2.712583 0.051850 1.247002
v 2.774970 0.051850 0.951472
v 2.794066 0.051850 0.681703
v 2.774970 0.000000 0.951472
v 2.712583 0.000000 1.247002
v 2.794066 0.000000 0.681703
v 2.799299 0.000000 0.172778
v 2.798732 0.000000 0.424442
v 2.798732 0.051850 0.424442
v 2.799299 0.051850 0.172778
v 2.799262 0.051850 -0.077515
v 2.798009 0.051850 -0.330422
v 2.798009 0.000000 -0.330422
v 2.799262 0.000000 -0.077515
v 2.790229 0.000000 -0.590820
v 2.762012 0.000000 -0.867062
v 2.790229 0.051850 -0.590820
v 2.762012 0.051850 -0.867062
v 2.671550 0.051850 -1.172651
v 2.437504 0.051850 -1.458395
v 2.437504 -0.000000 -1.458395
v 2.671550 -0.000000 -1.172651
v 1.838733 -0.000000 -1.645442
v 2.125155 0.000000 -1.599710
v 2.125155 0.051850 -1.599710
v 1.838733 0.051850 -1.645442
v 1.577812 0.051850 -1.661162
v 1.336609 0.051850 -1.674142
v 1.577812 0.000000 -1.661162
v 1.336609 -0.000000 -1.674142
v 1.123720 -0.000000 -1.702653
v 1.123720 0.051850 -1.702653
v 0.971385 0.051850 -1.759387
v 0.887451 0.051850 -1.849463
v 0.834645 0.051850 -2.012130
v 0.887451 0.000000 -1.849463
v 0.834645 0.000000 -2.012130
v 0.809119 0.000000 -2.230026
v 0.809119 0.051850 -2.230026
v 0.796798 0.051850 -2.473863
v 0.779341 0.051850 -2.737303
v 0.726248 0.051850 -3.027992
v 0.779341 0.000000 -2.737303
v 0.726248 0.000000 -3.027992
v 0.564851 0.000000 -3.339376
v 0.268180 -0.000000 -3.552545
v 0.564851 0.051850 -3.339376
v 0.268180 0.051850 -3.552545
v -0.033672 0.051850 -3.630890
v -0.309092 0.051850 -3.654202
v -0.309092 0.000000 -3.654202
v -0.033672 0.000000 -3.630890
v -0.576918 -0.000000 -3.654742
v -0.851449 0.000000 -3.633155
v -0.576918 0.051850 -3.654742
v -0.851449 0.051850 -3.633155
v -1.151489 0.051850 -3.559845
v -1.452070 0.051850 -3.355844
v -1.452070 0.000000 -3.355844
v -1.151489 -0.000000 -3.559845
v -1.622273 -0.000000 -3.045696
v -1.679070 0.000000 -2.753091
v -1.622273 0.051850 -3.045696
v -1.679070 0.051850 -2.753091
v -1.697531 0.051850 -2.488391
v -1.709621 0.051850 -2.243425
v -1.697531 0.000000 -2.488391
v -1.709621 0.000000 -2.243425
v -1.733928 0.000000 -2.023508
v -1.785640 0.000000 -1.854725
v -1.733928 0.051850 -2.023508
v -1.785640 0.051850 -1.854725
v -1.876559 0.051850 -1.744366
v -2.047034 0.051850 -1.643554
v -1.876559 0.000000 -1.744366
v -2.047034 -0.000000 -1.643554
v -2.297568 -0.000000 -1.500329
v -2.297568 0.051850 -1.500329
v -2.535548 0.051850 -1.241062
v -2.648318 0.051850 -0.933040
v -2.685415 0.051850 -0.652223
v -2.648318 0.000000 -0.933040
v -2.685415 0.000000 -0.652223
v -2.697034 0.000000 -0.389770
v -2.700171 0.000000 -0.135209
v -2.697034 0.051850 -0.389770
v -2.700171 0.051850 -0.135209
v -2.700683 0.051850 0.115986
v -2.700684 0.051850 0.366364
v -2.700683 -0.000000 0.115986
v -2.700684 -0.000000 0.366364
v -2.698763 0.000000 0.622261
v -2.616503 -0.000000 1.193423
v -2.682382 0.000000 0.895116
v -2.682382 0.051850 0.895116
v -2.616503 0.051850 1.193423
v -2.698763 0.051850 0.622261
v -2.445379 0.051850 1.489679
v -2.171917 0.051850 1.699269
v -2.445379 0.000000 1.489679
v -2.171917 0.000000 1.699269
v -2.535548 0.000000 -1.241062
v 0.796798 0.000000 -2.473863
v 0.971385 0.000000 -1.759387
v 1.655821 0.000000 1.830097
v 0.645210 0.000000 1.837833
vn 0.1235 -0.0000 -0.9923
vn 0.0317 -0.0000 -0.9995
vn -0.0000 -0.0000 -1.0000
vn -0.0005 -0.0000 -1.0000
vn -0.0054 -0.0000 -1.0000
vn -0.0242 -0.0000 -0.9997
vn -0.0773 -0.0000 -0.9970
vn -0.2157 -0.0000 -0.9765
vn -0.5248 -0.0000 -0.8512
vn -0.8575 -0.0000 -0.5145
vn -0.9784 -0.0000 -0.2066
vn -0.9975 -0.0000 -0.0706
vn -0.9998 -0.0000 -0.0181
vn -1.0000 -0.0000 -0.0023
vn -1.0000 -0.0000 0.0001
vn -1.0000 -0.0000 0.0050
vn -0.9996 -0.0000 0.0299
vn -0.9948 -0.0000 0.1016
vn -0.9589 -0.0000 0.2839
vn -0.7736 -0.0000 0.6337
vn -0.4122 -0.0000 0.9111
vn -0.1577 -0.0000 0.9875
vn -0.0601 -0.0000 0.9982
vn -0.0537 -0.0000 0.9986
vn -0.1327 -0.0000 0.9912
vn -0.3490 -0.0000 0.9371
vn -0.7316 -0.0000 0.6817
vn -0.9511 -0.0000 0.3088
vn -0.9932 -0.0000 0.1163
vn -0.9987 -0.0000 0.0505
vn -0.9978 -0.0000 0.0661
vn -0.9837 -0.0000 0.1797
vn -0.8878 -0.0000 0.4602
vn -0.5835 -0.0000 0.8121
vn -0.2512 -0.0000 0.9679
vn -0.0843 -0.0000 0.9964
vn -0.0020 -0.0000 1.0000
vn 0.0784 -0.0000 0.9969
vn 0.2374 -0.0000 0.9714
vn 0.5616 -0.0000 0.8274
vn 0.8767 -0.0000 0.4811
vn 0.9817 -0.0000 0.1906
vn 0.9976 -0.0000 0.0696
vn 0.9988 -0.0000 0.0493
vn 0.9939 -0.0000 0.1099
vn 0.9561 -0.0000 0.2929
vn 0.7718 -0.0000 0.6358
vn 0.5090 -0.0000 0.8608
vn 0.4963 -0.0000 0.8681
vn 0.7367 -0.0000 0.6762
vn 0.9390 -0.0000 0.3438
vn 0.9914 -0.0000 0.1310
vn 0.9990 -0.0000 0.0442
vn 0.9999 -0.0000 0.0123
vn 1.0000 -0.0000 0.0020
vn 1.0000 -0.0000 -0.0000
vn 1.0000 -0.0000 -0.0075
vn 0.9765 -0.0000 -0.2156
vn 0.9982 -0.0000 -0.0599
vn 0.8659 -0.0000 -0.5002
vn 0.6083 -0.0000 -0.7937
vn 0.3075 -0.0000 -0.9515
vt 0.000000 1.000000
vt 1.000000 1.000000
s 0
f 2/1/1 1/2/1 5/2/1 4/1/1
f 3/2/2 2/1/2 4/1/2 6/2/2
f 9/1/3 3/2/3 6/2/3 7/1/3
f 10/1/3 9/2/3 7/2/3 8/1/3
f 11/1/3 10/2/3 8/2/3 13/1/3
f 12/1/3 11/2/3 13/2/3 14/1/3
f 17/1/3 12/2/3 14/2/3 15/1/3
f 18/1/3 17/2/3 15/2/3 16/1/3
f 19/1/3 18/2/3 16/2/3 20/1/3
f 140/1/3 19/2/3 20/2/3 21/1/3
f 24/1/3 140/2/3 21/2/3 22/1/3
f 25/1/4 24/2/4 22/2/4 23/1/4
f 26/1/5 25/2/5 23/2/5 27/1/5
f 139/1/6 26/2/6 27/2/6 28/1/6
f 31/1/7 139/2/7 28/2/7 29/1/7
f 32/1/8 31/2/8 29/2/8 30/1/8
f 33/1/9 32/2/9 30/2/9 34/1/9
f 39/1/10 33/2/10 34/2/10 35/1/10
f 38/1/11 39/2/11 35/2/11 36/1/11
f 40/1/12 38/2/12 36/2/12 37/1/12
f 42/1/13 40/2/13 37/2/13 43/1/13
f 41/1/14 42/2/14 43/2/14 44/1/14
f 48/1/15 41/2/15 44/2/15 45/1/15
f 47/1/16 48/2/16 45/2/16 46/1/16
f 49/1/17 47/2/17 46/2/17 51/1/17
f 50/1/18 49/2/18 51/2/18 52/1/18
f 56/1/19 50/2/19 52/2/19 53/1/19
f 55/1/20 56/2/20 53/2/20 54/1/20
f 58/1/21 55/2/21 54/2/21 59/1/21
f 57/1/22 58/2/22 59/2/22 60/1/22
f 63/1/23 57/2/23 60/2/23 61/1/23
f 64/1/24 63/2/24 61/2/24 62/1/24
f 65/1/25 64/2/25 62/2/25 66/1/25
f 138/1/26 65/2/26 66/2/26 67/1/26
f 70/1/27 138/2/27 67/2/27 68/1/27
f 71/1/28 70/2/28 68/2/28 69/1/28
f 72/1/29 71/2/29 69/2/29 73/1/29
f 137/1/30 72/2/30 73/2/30 74/1/30
f 77/1/31 137/2/31 74/2/31 75/1/31
f 78/1/32 77/2/32 75/2/32 76/1/32
f 79/1/33 78/2/33 76/2/33 81/1/33
f 80/1/34 79/2/34 81/2/34 82/1/34
f 86/1/35 80/2/35 82/2/35 83/1/35
f 85/1/36 86/2/36 83/2/36 84/1/36
f 87/1/37 85/2/37 84/2/37 89/1/37
f 88/1/38 87/2/38 89/2/38 90/1/38
f 94/1/39 88/2/39 90/2/39 91/1/39
f 93/1/40 94/2/40 91/2/40 92/1/40
f 95/1/41 93/2/41 92/2/41 97/1/41
f 96/1/42 95/2/42 97/2/42 98/1/42
f 101/1/43 96/2/43 98/2/43 99/1/43
f 102/1/44 101/2/44 99/2/44 100/1/44
f 103/1/45 102/2/45 100/2/45 105/1/45
f 104/1/46 103/2/46 105/2/46 106/1/46
f 109/1/47 104/2/47 106/2/47 107/1/47
f 110/1/48 109/2/48 107/2/48 108/1/48
f 111/1/49 110/2/49 108/2/49 112/1/49
f 136/1/50 111/2/50 112/2/50 113/1/50
f 116/1/51 136/2/51 113/2/51 114/1/51
f 117/1/52 116/2/52 114/2/52 115/1/52
f 118/1/53 117/2/53 115/2/53 120/1/53
f 119/1/54 118/2/54 120/2/54 121/1/54
f 124/1/55 119/2/55 121/2/55 122/1/55
f 125/1/56 124/2/56 122/2/56 123/1/56
f 126/1/57 125/2/57 123/2/57 131/1/57
f 127/1/58 128/2/58 129/2/58 130/1/58
f 128/1/59 126/2/59 131/2/59 129/1/59
f 134/1/60 127/2/60 130/2/60 132/1/60
f 135/1/61 134/2/61 132/2/61 133/1/61
f 1/1/62 135/2/62 133/2/62 5/1/62
