# Blender 4.3.0
# www.blender.org
mtllib track_outer_tri.mtl
o Plane.001
v -1.876271 0.000000 1.794817
v -1.590753 0.000000 1.830358
v -1.354789 0.000000 1.837833
v -1.590753 0.051850 1.830358
v -1.876271 0.051850 1.794817
v -1.354789 0.051850 1.837833
v -1.104789 0.051850 1.837833
v -0.854789 0.051850 1.837833
v -1.104789 0.000000 1.837833
v -0.854789 0.000000 1.837833
v -0.604790 0.000000 1.837833
v -0.354790 0.000000 1.837833
v -0.604790 0.051850 1.837833
v -0.354790 0.051850 1.837833
v -0.104790 0.051850 1.837833
v 0.145210 0.051850 1.837833
v -0.104790 0.000000 1.837833
v 0.145210 0.000000 1.837833
v 0.395211 0.000000 1.837833
v 0.395211 0.051850 1.837833
v 0.645210 0.051850 1.837833
v 0.895224 0.051850 1.837833
v 1.145677 0.051850 1.837696
v 0.895224 0.000000 1.837833
v 1.145677 0.000000 1.837696
v 1.398111 0.000000 1.836343
v 1.398111 0.051850 1.836343
v 1.655821 0.051850 1.830097
v 1.925571 0.051850 1.809171
v 2.221492 0.051850 1.743812
v 1.925571 0.000000 1.809171
v 2.221492 0.000000 1.743812
v 2.527777 0.000000 1.554993
v 2.527777 0.051850 1.554993
v 2.712583 0.051850 1.247002
v 2.774970 0.051850 0.951472
v 2.794066 0.051850 0.681703
v 2.774970 0.000000 0.951472
v 2.712583 0.000000 1.247002
v 2.794066 0.000000 0.681703
v 2.799299 0.000000 0.172778
v 2.798732 0.000000 0.424442
v 2.798732 0.051850 0.424442
v 2.799299 0.051850 0.172778
v 2.799262 0.051850 -0.077515
v 2.798009 0.051850 -0.330422
v 2.798009 0.000000 -0.330422
v 2.799262 0.000000 -0.077515
v 2.790229 0.000000 -0.590820
v 2.762012 0.000000 -0.867062
v 2.790229 0.051850 -0.590820
v 2.762012 0.051850 -0.867062
v 2.671550 0.051850 -1.172651
v 2.437504 0.051850 -1.458395
v 2.437504 -0.000000 -1.458395
v 2.671550 -0.000000 -1.172651
v 1.838733 -0.000000 -1.645442
v 2.125155 0.000000 -1.599710
v 2.125155 0.051850 -1.599710
v 1.838733 0.051850 -1.645442
v 1.577812 0.051850 -1.661162
v 1.336609 0.051850 -1.674142
v 1.577812 0.000000 -1.661162
v 1.336609 -0.000000 -1.674142
v 1.123720 -0.000000 -1.702653
v 1.123720 0.051850 -1.702653
v 0.971385 0.051850 -1.759387
v 0.887451 0.051850 -1.849463
v 0.834645 0.051850 -2.012130
v 0.887451 0.000000 -1.849463
v 0.834645 0.000000 -2.012130
v 0.809119 0.000000 -2.230026
v 0.809119 0.051850 -2.230026
v 0.796798 0.051850 -2.473863
v 0.779341 0.051850 -2.737303
v 0.726248 0.051850 -3.027992
v 0.779341 0.000000 -2.737303
v 0.726248 0.000000 -3.027992
v 0.564851 0.000000 -3.339376
v 0.268180 -0.000000 -3.552545
v 0.564851 0.051850 -3.339376
v 0.268180 0.051850 -3.552545
v -0.033672 0.051850 -3.630890
v -0.309092 0.051850 -3.654202
v -0.309092 0.000000 -3.654202
v -0.033672 0.000000 -3.630890
v -0.576918 -0.000000 -3.654742
v -0.851449 0.000000 -3.633155
v -0.576918 0.051850 -3.654742
v -0.851449 0.051850 -3.633155
v -1.151489 0.051850 -3.559845
v -1.452070 0.051850 -3.355844
v -1.452070 0.000000 -3.355844
v -1.151489 -0.000000 -3.559845
v -1.622273 -0.000000 -3.045696
v -1.679070 0.000000 -2.753091
v -1.622273 0.051850 -3.045696
v -1.679070 0.051850 -2.753091
v -1.697531 0.051850 -2.488391
v -1.709621 0.051850 -2.243425
v -1.697531 0.000000 -2.488391
v -1.709621 0.000000 -2.243425
v -1.733928 0.000000 -2.023508
v -1.785640 0.000000 -1.854725
v -1.733928 0.051850 -2.023508
v -1.785640 0.051850 -1.854725
v -1.876559 0.051850 -1.744366
v -2.047034 0.051850 -1.643554
v -1.876559 0.000000 -1.744366
v -2.047034 -0.000000 -1.643554
v -2.297568 -0.000000 -1.500329
v -2.297568 0.051850 -1.500329
v -2.535548 0.051850 -1.241062
v -2.648318 0.051850 -0.933040
v -2.685415 0.051850 -0.652223
v -2.648318 0.000000 -0.933040
v -2.685415 0.000000 -0.652223
v -2.697034 0.000000 -0.389770
v -2.700171 0.000000 -0.135209
v -2.697034 0.051850 -0.389770
v -2.700171 0.051850 -0.135209
v -2.700683 0.051850 0.115986
v -2.700684 0.051850 0.366364
v -2.700683 -0.000000 0.115986
v -2.700684 -0.000000 0.366364
v -2.698763 0.000000 0.622261
v -2.616503 -0.000000 1.193423
v -2.682382 0.000000 0.895116
v -2.682382 0.051850 0.895116
v -2.616503 0.051850 1.193423
v -2.698763 0.051850 0.622261
v -2.445379 0.051850 1.489679
v -2.171917 0.051850 1.699269
v -2.445379 0.000000 1.489679
v -2.171917 0.000000 1.699269
v -2.535548 0.000000 -1.241062
v 0.796798 0.000000 -2.473863
v 0.971385 0.000000 -1.759387
v 1.655821 0.000000 1.830097
v 0.645210 0.000000 1.837833
vn 0.2179 -0.0000 -0.9760
vn 0.0778 -0.0000 -0.9970
vn 0.0158 -0.0000 -0.9999
vn -0.0000 -0.0000 -1.0000
vn -0.0003 -0.0000 -1.0000
vn -0.0030 -0.0000 -1.0000
vn -0.0148 -0.0000 -0.9999
vn -0.0508 -0.0000 -0.9987
vn -0.1474 -0.0000 -0.9891
vn -0.3831 -0.0000 -0.9237
vn -0.7352 -0.0000 -0.6779
vn -0.9377 -0.0000 -0.3475
vn -0.9906 -0.0000 -0.1371
vn -0.9990 -0.0000 -0.0443
vn -1.0000 -0.0000 -0.0011
vn -0.9999 -0.0000 -0.0102
vn -1.0000 -0.0000 0.0026
vn -0.9998 -0.0000 0.0174
vn -0.9979 -0.0000 0.0655
vn -0.9819 -0.0000 0.1893
vn -0.8968 -0.0000 0.4424
vn -0.6299 -0.0000 0.7767
vn -0.1092 -0.0000 0.9940
vn -0.2913 -0.0000 0.9566
vn -0.0569 -0.0000 0.9984
vn -0.0934 -0.0000 0.9956
vn -0.2446 -0.0000 0.9696
vn -0.5755 -0.0000 0.8178
vn -0.8786 -0.0000 0.4775
vn -0.9780 -0.0000 0.2085
vn -0.9965 -0.0000 0.0832
vn -0.9983 -0.0000 0.0583
vn -0.9925 -0.0000 0.1220
vn -0.9509 -0.0000 0.3094
vn -0.7792 -0.0000 0.6268
vn -0.4350 -0.0000 0.9005
vn -0.1693 -0.0000 0.9856
vn -0.0433 -0.0000 0.9991
vn 0.0383 -0.0000 0.9993
vn 0.1592 -0.0000 0.9873
vn 0.4152 -0.0000 0.9097
vn 0.7629 -0.0000 0.6465
vn 0.9459 -0.0000 0.3243
vn 0.9917 -0.0000 0.1290
vn 0.9982 -0.0000 0.0594
vn 0.9968 -0.0000 0.0794
vn 0.9802 -0.0000 0.1978
vn 0.8937 -0.0000 0.4487
vn 0.6626 -0.0000 0.7490
vn 0.5027 -0.0000 0.8645
vn 0.6335 -0.0000 0.7737
vn 0.8682 -0.0000 0.4962
vn 0.9727 -0.0000 0.2320
vn 0.9962 -0.0000 0.0872
vn 0.9996 -0.0000 0.0283
vn 1.0000 -0.0000 0.0072
vn 1.0000 -0.0000 0.0010
vn 1.0000 -0.0000 -0.0038
vn 0.9994 -0.0000 -0.0337
vn 0.9380 -0.0000 -0.3467
vn 0.9907 -0.0000 -0.1359
vn 0.7677 -0.0000 -0.6408
vn 0.4742 -0.0000 -0.8804
vt 1.000000 1.000000
vt 0.000000 1.000000
s 1
f 1/1/1 4/2/2 2/2/2
f 2/2/2 6/1/3 3/1/3
f 3/1/3 7/2/4 9/2/4
f 9/1/4 8/2/4 10/2/4
f 10/1/4 13/2/4 11/2/4
f 11/1/4 14/2/4 12/2/4
f 12/1/4 15/2/4 17/2/4
f 17/1/4 16/2/4 18/2/4
f 18/1/4 20/2/4 19/2/4
f 19/1/4 21/2/4 140/2/4
f 140/1/4 22/2/5 24/2/5
f 24/1/5 23/2/6 25/2/6
f 25/1/6 27/2/7 26/2/7
f 26/1/7 28/2/8 139/2/8
f 139/1/8 29/2/9 31/2/9
f 31/1/9 30/2/10 32/2/10
f 32/1/10 34/2/11 33/2/11
f 33/1/11 35/2/12 39/2/12
f 39/1/12 36/2/13 38/2/13
f 38/1/13 37/2/14 40/2/14
f 40/1/14 43/2/16 42/2/16
f 42/1/16 44/2/15 41/2/15
f 41/1/15 45/2/17 48/2/17
f 48/1/17 46/2/18 47/2/18
f 47/1/18 51/2/19 49/2/19
f 49/1/19 52/2/20 50/2/20
f 50/1/20 53/2/21 56/2/21
f 56/1/21 54/2/22 55/2/22
f 55/1/22 59/2/24 58/2/24
f 58/1/24 60/2/23 57/2/23
f 57/1/23 61/2/25 63/2/25
f 63/1/25 62/2/26 64/2/26
f 64/1/26 66/2/27 65/2/27
f 65/1/27 67/2/28 138/2/28
f 138/1/28 68/2/29 70/2/29
f 70/1/29 69/2/30 71/2/30
f 71/1/30 73/2/31 72/2/31
f 72/1/31 74/2/32 137/2/32
f 137/1/32 75/2/33 77/2/33
f 77/1/33 76/2/34 78/2/34
f 78/1/34 81/2/35 79/2/35
f 79/1/35 82/2/36 80/2/36
f 80/1/36 83/2/37 86/2/37
f 86/1/37 84/2/38 85/2/38
f 85/1/38 89/2/39 87/2/39
f 87/1/39 90/2/40 88/2/40
f 88/1/40 91/2/41 94/2/41
f 94/1/41 92/2/42 93/2/42
f 93/1/42 97/2/43 95/2/43
f 95/1/43 98/2/44 96/2/44
f 96/1/44 99/2/45 101/2/45
f 101/1/45 100/2/46 102/2/46
f 102/1/46 105/2/47 103/2/47
f 103/1/47 106/2/48 104/2/48
f 104/1/48 107/2/49 109/2/49
f 109/1/49 108/2/50 110/2/50
f 110/1/50 112/2/51 111/2/51
f 111/1/51 113/2/52 136/2/52
f 116/2/53 113/1/52 114/2/53
f 116/1/53 115/2/54 117/2/54
f 117/1/54 120/2/55 118/2/55
f 118/1/55 121/2/56 119/2/56
f 119/1/56 122/2/57 124/2/57
f 124/1/57 123/2/58 125/2/58
f 125/1/58 131/2/59 126/2/59
f 128/1/61 130/2/60 127/2/60
f 126/1/59 129/2/61 128/2/61
f 127/1/60 132/2/62 134/2/62
f 134/1/62 133/2/63 135/2/63
f 135/1/63 5/2/1 1/2/1
f 1/1/1 5/1/1 4/2/2
f 2/2/2 4/2/2 6/1/3
f 3/1/3 6/1/3 7/2/4
f 9/1/4 7/1/4 8/2/4
f 10/1/4 8/1/4 13/2/4
f 11/1/4 13/1/4 14/2/4
f 12/1/4 14/1/4 15/2/4
f 17/1/4 15/1/4 16/2/4
f 18/1/4 16/1/4 20/2/4
f 19/1/4 20/1/4 21/2/4
f 140/1/4 21/1/4 22/2/5
f 24/1/5 22/1/5 23/2/6
f 25/1/6 23/1/6 27/2/7
f 26/1/7 27/1/7 28/2/8
f 139/1/8 28/1/8 29/2/9
f 31/1/9 29/1/9 30/2/10
f 32/1/10 30/1/10 34/2/11
f 33/1/11 34/1/11 35/2/12
f 39/1/12 35/1/12 36/2/13
f 38/1/13 36/1/13 37/2/14
f 40/1/14 37/1/14 43/2/16
f 42/1/16 43/1/16 44/2/15
f 41/1/15 44/1/15 45/2/17
f 48/1/17 45/1/17 46/2/18
f 47/1/18 46/1/18 51/2/19
f 49/1/19 51/1/19 52/2/20
f 50/1/20 52/1/20 53/2/21
f 56/1/21 53/1/21 54/2/22
f 55/1/22 54/1/22 59/2/24
f 58/1/24 59/1/24 60/2/23
f 57/1/23 60/1/23 61/2/25
f 63/1/25 61/1/25 62/2/26
f 64/1/26 62/1/26 66/2/27
f 65/1/27 66/1/27 67/2/28
f 138/1/28 67/1/28 68/2/29
f 70/1/29 68/1/29 69/2/30
f 71/1/30 69/1/30 73/2/31
f 72/1/31 73/1/31 74/2/32
f 137/1/32 74/1/32 75/2/33
f 77/1/33 75/1/33 76/2/34
f 78/1/34 76/1/34 81/2/35
f 79/1/35 81/1/35 82/2/36
f 80/1/36 82/1/36 83/2/37
f 86/1/37 83/1/37 84/2/38
f 85/1/38 84/1/38 89/2/39
f 87/1/39 89/1/39 90/2/40
f 88/1/40 90/1/40 91/2/41
f 94/1/41 91/1/41 92/2/42
f 93/1/42 92/1/42 97/2/43
f 95/1/43 97/1/43 98/2/44
f 96/1/44 98/1/44 99/2/45
f 101/1/45 99/1/45 100/2/46
f 102/1/46 100/1/46 105/2/47
f 103/1/47 105/1/47 106/2/48
f 104/1/48 106/1/48 107/2/49
f 109/1/49 107/1/49 108/2/50
f 110/1/50 108/1/50 112/2/51
f 111/1/51 112/1/51 113/2/52
f 116/2/53 136/1/52 113/1/52
f 116/1/53 114/1/53 115/2/54
f 117/1/54 115/1/54 120/2/55
f 118/1/55 120/1/55 121/2/56
f 119/1/56 121/1/56 122/2/57
f 124/1/57 122/1/57 123/2/58
f 125/1/58 123/1/58 131/2/59
f 128/1/61 129/1/61 130/2/60
f 126/1/59 131/1/59 129/2/61
f 127/1/60 130/1/60 132/2/62
f 134/1/62 132/1/62 133/2/63
f 135/1/63 133/1/63 5/2/1
